<mxfile host="app.diagrams.net" agent="Mozilla/5.0 (Macintosh; Intel Mac OS X 10_15_7) AppleWebKit/537.36 (KHTML, like Gecko) Chrome/128.0.0.0 Safari/537.36" version="24.7.8">
  <diagram name="Page-1" id="FmwaxtS4iD3rybHJDUQs">
    <mxGraphModel dx="2074" dy="795" grid="1" gridSize="10" guides="1" tooltips="1" connect="1" arrows="1" fold="1" page="1" pageScale="1" pageWidth="850" pageHeight="1100" math="0" shadow="0">
      <root>
        <mxCell id="0" />
        <mxCell id="1" parent="0" />
        <mxCell id="mqpe3ahFdLiyBv0JMup5-8" value="" style="rounded=0;whiteSpace=wrap;html=1;" parent="1" vertex="1">
          <mxGeometry x="380" y="50" width="710" height="520" as="geometry" />
        </mxCell>
        <mxCell id="mqpe3ahFdLiyBv0JMup5-5" style="edgeStyle=orthogonalEdgeStyle;rounded=0;orthogonalLoop=1;jettySize=auto;html=1;exitX=1;exitY=0.5;exitDx=0;exitDy=0;" parent="1" source="mqpe3ahFdLiyBv0JMup5-2" target="mqpe3ahFdLiyBv0JMup5-4" edge="1">
          <mxGeometry relative="1" as="geometry" />
        </mxCell>
        <mxCell id="mqpe3ahFdLiyBv0JMup5-2" value="Client" style="whiteSpace=wrap;html=1;aspect=fixed;" parent="1" vertex="1">
          <mxGeometry x="130" y="250" width="80" height="80" as="geometry" />
        </mxCell>
        <mxCell id="mqpe3ahFdLiyBv0JMup5-4" value="API&lt;br&gt;Gateway" style="outlineConnect=0;dashed=0;verticalLabelPosition=bottom;verticalAlign=top;align=center;html=1;shape=mxgraph.aws3.api_gateway;fillColor=#D9A741;gradientColor=none;" parent="1" vertex="1">
          <mxGeometry x="280" y="243.5" width="76.5" height="93" as="geometry" />
        </mxCell>
        <mxCell id="mqpe3ahFdLiyBv0JMup5-11" value="" style="shape=image;verticalLabelPosition=bottom;labelBackgroundColor=default;verticalAlign=top;aspect=fixed;imageAspect=0;image=data:image/jpeg,/9j/4AAQSkZJRgABAQAAAQABAAD/4gKgSUNDX1BST0ZJTEUAAQEAAAKQbGNtcwQwAABtbnRyUkdCIFhZWiAAAAAAAAAAAAAAAABhY3NwQVBQTAAAAAAAAAAAAAAAAAAAAAAAAAAAAAAAAAAA9tYAAQAAAADTLWxjbXMAAAAAAAAAAAAAAAAAAAAAAAAAAAAAAAAAAAAAAAAAAAAAAAAAAAAAAAAAAAAAAAtkZXNjAAABCAAAADhjcHJ0AAABQAAAAE53dHB0AAABkAAAABRjaGFkAAABpAAAACxyWFlaAAAB0AAAABRiWFlaAAAB5AAAABRnWFlaAAAB+AAAABRyVFJDAAACDAAAACBnVFJDAAACLAAAACBiVFJDAAACTAAAACBjaHJtAAACbAAAACRtbHVjAAAAAAAAAAEAAAAMZW5VUwAAABwAAAAcAHMAUgBHAEIAIABiAHUAaQBsAHQALQBpAG4AAG1sdWMAAAAAAAAAAQAAAAxlblVTAAAAMgAAABwATgBvACAAYwBvAHAAeQByAGkAZwBoAHQALAAgAHUAcwBlACAAZgByAGUAZQBsAHkAAAAAWFlaIAAAAAAAAPbWAAEAAAAA0y1zZjMyAAAAAAABDEoAAAXj///zKgAAB5sAAP2H///7ov///aMAAAPYAADAlFhZWiAAAAAAAABvlAAAOO4AAAOQWFlaIAAAAAAAACSdAAAPgwAAtr5YWVogAAAAAAAAYqUAALeQAAAY3nBhcmEAAAAAAAMAAAACZmYAAPKnAAANWQAAE9AAAApbcGFyYQAAAAAAAwAAAAJmZgAA8qcAAA1ZAAAT0AAACltwYXJhAAAAAAADAAAAAmZmAADypwAADVkAABPQAAAKW2Nocm0AAAAAAAMAAAAAo9cAAFR7AABMzQAAmZoAACZmAAAPXP/bAEMABQMEBAQDBQQEBAUFBQYHDAgHBwcHDwsLCQwRDxISEQ8RERMWHBcTFBoVEREYIRgaHR0fHx8TFyIkIh4kHB4fHv/bAEMBBQUFBwYHDggIDh4UERQeHh4eHh4eHh4eHh4eHh4eHh4eHh4eHh4eHh4eHh4eHh4eHh4eHh4eHh4eHh4eHh4eHv/CABEIAZABkAMBIgACEQEDEQH/xAAcAAEAAgMBAQEAAAAAAAAAAAAABgcEBQgDAgH/xAAaAQEAAwEBAQAAAAAAAAAAAAAAAQIDBAUG/9oADAMBAAIQAxAAAAGvB0YgAAAAAAAAAAAAAAAAAAAAAAAAAAAAAAAAAAAAAAAAAAAAAAAAAAAAAAAAAAAAAAAAAAAAAAAAAAAAAAAAAAAAAAAAAAAAAAAAAAAAAAAAAAAAAAAAAAAAAAAAAAAAAAAAAAAAAAAAAAAAAAAAAAAAAAAAAAAAAAAAAAAAAAAAAAAAAAAAADbw1Cz5NW1FOgscoValdWjAMyYw1nYNZr8Wgeh5rJ+qzWjJxrQATLeVmsW01doNjYkTVS/PWs8/LqiMoG+/i1QAAAAAAANx0ZzbY2d7QxqBj8Ol87lnYy6X1Wuk2duZfKyat2z6j9IhMMdOatZPoDvmlEXtGFrjHWj4PcNPbZPr538xfec0WGtGtNdu2cr2Cq8tLHxOcfm9eoMjlqVwzILutLpUJgAAAAAAAA+s81za4MJrdlC31lpC6Lvqhb1se4ea+k6WgFL9Jc23qveium4YnzGPOlpDzz1NzHeMWzKzvaYmVX2hz1S0c6B5+tm9bPoa+dXnfmtYsI2zwRMAAAAAAAAAftj/ABced9fsNdWVLW98UbkTFu7CAz6sxGhb6oXWjojne1i0ubekqWpaP9E07cRTPxGfO9ek6GvmrqWqzpqhug5jWc2W/T1oZOMvW+5byxJ879AeddTSltRW96JjldZFb60CYAAAAAAA6J3+t2XPrRcLk8Y3zCYmd61zY2OkRoW/qBvVI459Wr1NAZZ846xmVeccRR78b59KanWzTDWsLXi+9KQiPp57ZhMAPr5Fk2/zL01lpqubOmuZpr+DSoAAAAAAF5TbnG+sdNPVHQYoKd2FpzY+/PdrEm5s6JoS0aQaUuSxKIvfHRT9wc7kfG2dh3Lzj0bjp+wOeUcQgbZr9oK76W1EWvj9pbnXPvtKGzJEazraXy8TXMLQAAAAAAAyMcTXOrxWZbFvNJkY6YysUAP3a6lDa6okA2mrG31P4gEgNvJIIibM8K6QkMf/ABMBIAAAAAAA2uw4+iNP386+cJAAAAAAAAAAAD1ifL0mkl8D1a3yrCeZ215h2ehT/wCSiL/V+EHTiAAAAB9zuA/vD1WfEMma/M+zUP5akX9jz4mycb2fOC9QAAAAAAAAGRjqzucTC3HH06/9mMTx0kMxruxPmvZg8W2uq+s8EO3mAAAAAAbLWsr2ds6gkvy3uTjTbHK8T0oJpbVerw08tPVerwwFKtf6HJpWbi9WHwNKgAHtmZX1qQbLj6Ib9WJtvO7K63steT34eZgwzK8jgXj+/XeBNJD8xX5j2ov8n23zYTAAAAAAAAHpJIu5drSz6f2vz3r2Wim98T0s4cXSB4+OY1zwWctGJkfalgzufmt1z2aH6D1uCeRWNvoPK+vk9fz240+ZhrO66+vPm2D0eQAAAAAAAAAAAIZO00Tn2l2ZBXF02F61ww1sn4rlE2DjQdpSV67Suvn9vE7OcL1AAAAAAAAAAAAAAAAAAAAAAAAAAAAAAAAAAAAAAAAAAAAAAAAAAAAAAAAAAAAAAAAAAAAAAAAAAAAAAAAAAAAAAAAAAAAAAAAAAAAAAAAAAAAAAAAAAAAAAAAAAAAAAAAAAAAAAAAAAAAAAAAAAAAAAAAAAAAAA//EACoQAAEEAgEDAwQDAQEAAAAAAAQBAgMFAAYQExRAERIgFRYwNSEikCRg/9oACAEBAAEFAv8APcCtMNwTU3rkOtVbM+hVWSa5VPQzU8NEIDmwOBxRX2jLhmrkwwcxtc98WpkKx2pTehMLx5+aigIsBvtGXLQN4BmAhEmyhammR69VMR1BVOQjVQH4drBsKOarXeDTQsItWNaxuSzwxYhoSqioqZZBQHjHDSBlCyrATE9JI8tYe3seNWh693xukHSt+GornAwoOHl0R3VpUASWBoIkAcGTFDQ4lnX5FNDLxurGttvBrCEEPN2xnoXc2ROL/PARpQb9fs0shM3sX0XNSJ69Nm7j9O040OD+/G9Q+4PjX4O4uMviu0qs0sZsVXm2XE8RCqqrjXOa4DYbEbLiwksivH0mVWWubm33UuaMT7TM3iD31vGoQ9KluJ+3rKWfuarY4OvTcaJB6kZvZPozNXVFo822B8V15CIq4wE16LXWCY+KVmaj++zbv0eVM/a2SL6pbj91WY1Fc4OFBxd3n9lZo0/vr3IjmlxdArNPg6NNmxk91cZo5qLFlgCMfCdqxLMJEJGd4tLrTpmihiipw5rXI0MVs+bd+j418nu6jLeHt7PXoevcZvM3vsNIn9lnm3Q9G6jar5BYkgGtCEFr1X1XBppB56W7GPbw9rXtNoK0lLbXiw2+Fpta2eXDzIAYDNrnV33La5HtNi3KXYe/Lzbv0fGiEfxm8D9Oy0WD3G5dz9za1M/bWeb5B/XWYO4us3kn2B/AK+sRcD2sd2B2AZfO31TYF8HX4Ugps3Ap81tzprfdeZt36PjWye1uM3aDqVmlw9OpsZu3AX+Vyqm7it2qHrUuhj/2zbCe4uPkiqi63ezoTlrEk9b4NW73VubRGsd3zplc+CHNqar6PhF9FrZ+5AtYO5raqHt63c5+lT8aTP1KoiNJoNYFUWpMmQcWRyvk+YEbpTcPekYXg6eWk9VmwU7LNk9FaROH1+1mWq1qAd8skcLMIibPAcO8QvjRyeoDxvc3uL40af2WHG6ldGs5EqwJ6kvU2qs+uWsarT2nqPrtrKtHRQ1y5uR6QBeDUHy1xlecOdBzY2IoEd1bz2U2s2TTwjjRwoLo1D7DjUSkHt+NhIQq34pCUEteNyKSe05124FnE+NzeCgNLIlKI8KCaWB4+zWcSfdhuFbDaT5I98jsgmlgkInmIf8ABtke1JLE6RvwjsDo2LZ2Cov8r8BbM8bIdpsWIm3Teku2GLhdzZFf+jYxz1ZXmPz6SXi1JmSAlR/nrB2EkG1UsWKnovlRMdI8SojakbGRt+GwxtbP+Vrla6tsmz4WHAShdVPFioqL5EEr4JXWZrscWU7OvNiETplQfNJPmxO/6Pz11orMa5HNIFgnQmmemTQSwr5A1cVNkVPAjT4O2Jo2e6wy1k6p/gBGTCuDNhJTHIjkIrBZMmp5m5MNPD4SIqrDXFyZBTNTIBYIeD7KODJZHyya7F6MMlSAZV9V8FFVFCtpGZBPFO3mUQaTJKcZ2SUsqY+sMbjhSW45rm/NsUrsYCW7GVJbsipUyKrEZkcccacFFQDobZzTcgw9AW+J98niMe5jhreRuDmDz/gWKJ2KKMudmLnZi4gwyY1jW/Mk8aDCraaTHKrl4qIesbaGtGiVVVfHHsCocguWLkJg0v5VVEyY8WLJrnCDSZ/kKTKM6R7pH+XHPNHkdqW3GXTsbcw4lsIufVAs+pg4toFi24iY65ix91JktmY/HyyP/wAnv//EACoRAAEDAgYBAwQDAAAAAAAAAAEAAgMEEQUQEiEwMTITQVEUIGFwFSJC/9oACAEDAQE/Af1ppK0q2VjnY52OVlpVjxNK1LVkdsihke8xuulqWpHkanJqcmq+6cm9pyaiLq3GAr2WoZOTU5NV907pNTsg5XVuM5NTs+hl2EOvtancIKIVggU7Jqdk1HJq0haV0ib8VzyXVzxNpZHs1tG3MBdQ4U927zZDCofcp2ExHoqeL0nlnx99NVOgdsvTp61tx2psMlj8d0WlpseMEg3Ca6ol2BJU1PPC3U5YY9z4buVW/XM48DJHMOpqpsUB2kTmRzDcXUmFRO8dk/CZR4m6dRTt7ajG5vYVsrIRPd0Eyhnf/lR4Q8+RUWGws73U1VDTCyqat9Qd+kXfSUv5R34oaiSI/wBSocW9pAo6uKTp2VkY2nsL0Y/hCNo6GT5Gt7KlxSFnjup8Slk2GwV7qBzWvBd0quqdUO/HMyokZ05NxKce6GLTL+Wm+EcUnKfWzv7ciSe/1B//xAAtEQABAwMDAwMDBAMAAAAAAAABAAIDBBExBRIhEDBRBjJBEyAiFBZCcDNSof/aAAgBAgEBPwH+tN4W8IG/TcOu4ddw6EgLeFuHacCVsWxYQNwihhOx0bjqeAgLrYtiGO1dXT8pmE/KZhPVuExOwmDlPwmmyvftucgCVsKKZhPwmZT8q3CZlPTMdCzwrEIOIQN+yUMdHZTMdBwVk9MFHkofY8JnZcEHWW4lFtkzo7KZno/KaOej1vK3lclAW7W0K3bsFtHafXwxy/ScbFA3x3SQBcqp1+JhtGLp3qCpOAEz1DUD3AFUlQKiISD5++toI6ttnZ8ozVmlu2nlqpdcgl4fwUx7XC7T23NDhYp8dJTi7gAqarpKl5Ywf8WtxRx1FmCy06P6dMxp8diWJkrdrxcKt0Fzfyg5HhMlnpncEhQ+oJ2e8XUXqCnd7xZR6lSyYemysdgq46XCdURNy4KTVqSP+al9RRD/ABtup9cqZOG8KmoKmtdc48lUWnxUbfxz5QYdQrz4ugLC3aqKOGoFpAqn06cwlTafUQ+5vS5Qmkbgr9TN/sUZXuyVdRwSSGzRdU+hVEnu4VLotPDy7koADCqWPfEWx5K0+gbSMt8nPekpIJfe0J+i0jv4o+n6Y/JX7epvJTdBpR8XUemUseGJrA3gf1B//8QAQBAAAQICBwIKCAUEAwEAAAAAAQIDABEEEBIhIkFxMVETICMzQFJhgZKxMjRCcpGhwdEUMFNi8CSCg5BDYKLx/9oACAEBAAY/Av8AXv8A07CinrZROlUkJ7ECL23HPeX9o9UT8THMKR2pWYJolJPuufeOCpDZQrzqbo6CApxUr49cR4IU62+h2yJ2ZSPECEialGQgFylNpO6U4w0tsn3YWy4JLQZHifiOES0g7J5x64jwQujLUFFOYq4OjNFZz3CJ0ykH3W/vHq5V7yjHqg7lGOSceaOsxBUwpL47LjBSoEEbQehUZlwTQpd4gJSAANgFXKuto95UokKWwf8AIImDMVFl4aHNMLo7vpIMNvDahQMJcScKhMVPs9VZrYGSMZ7q+FGx1APfsrCRtMMsD2EAVPvZFV2kJYRcNqlbhAZo6LKR86uWfab95Uo9dY8Uck6hz3VTqCkiRUgE9CZpBEwhUzEqHRyT1nIx0paRuRdF9VqjvKR2TuMWiLLqLlj61MUwDbgV9PrU2knE1g+1SXxsdR8x/BXSaT2BA/nwrZf6i5fGujt5WrR7qn3QcVmynU1cPLG8r5Cr8DRVluQxqG2Jm81WkkgjMRJTnDp3OfeOHWgIkJADpBbycbNSj1Vg1O0Un002k6ipD36a/OtCs3CVRSHuqgy1ijvZlF+sUhMrwm0O6t+kkeimwKmKKDtxmqjy3fWp1ZGFySknu6TICcYKI+rRsxfQaSP8RjG2tOohnRXlU7qPOph/qrv0icUhjNSLtcqgkbTDTA2NoCYQyP8AlXfoIcYJ5tcxoYIOww6yfYURUhZ2ukqqfXPCk2E6CpdBUcQxo0zq4KkImMjmIJojiXk9U3GLL7DjZ7R0ZL9OJQg3hsbTFlhhCNBXJQB1gPJo7aXBsUE1O6jzrYc9oJsq1FVIa3LMoo6MrVo91TbP6aPOFs/qI8qnDk4AuEoTtUZCG2U7EJCYfpB9hF2sTO2pLzSrK0mYMBCiGn80HPSuypIUNxjmuBX1m7oLjXLtDaRtHd0M015M0NmSB+6ovUhdlPnEqIwhCd67zHON+CMSWF6phFFXRbClTxBUxU7qPOt+ik/vFSHwLnUfMfwQ9SDsbRLvP/yqkvZFchoLoo7/AFViemdVHpIGyaD9PrDCZXJNo91TVGB5xVo6DigB7hE9Vy+AKSwps703iP6ekIWerO+v8dR0SQo8oBkd/QqMgZotHvvqUzPAzcBxEHqoUandR51sLPoqNhXfUl2V7S/OOEzdWTD73VQTXR3usgQ9vRiikUo9iE/X6VOAHC1gH148wZGEUSlr4RCzJKjtBqpDSs0HoVGUM2k+VVIn7RtcRVMeTZU5cgdlT8spH51zEMv9dEPsZqQZaxR2c0oE9Y4MbXVhP1rUydrS/kf4YW0rYtJSYQhYksklUOvnYhJMKWraozP5DLaPSUsVPLOSD0IMk42cPdlUlSSEPo2K39kS/CqX2ovj1fgxvWqUB2lr4ZY2J9mLTikoTsvqWyv0ViRhyjuekgy1rcoxN7SpjQ1sMdRM/jW6z+ojyrDA9J5Uu4fwcSjpcorZm0kzlfs3xOi0mz2LEXMpdG9CxHqL3wi9gNDetUcMtXCv78hpV+DQeUe29iehB5F42LTvEB2jrB3jMcS3SHQDkkbTF+BpPooEBClcu2JKG/tjhaQ4EjIZmF0lKLANwFaUqMkuix35VvuJM02rKe6ujvKMkhUlaV8ElU0siz38RqjOOBt5CQmSs+MUIUHX+qMtYU++q0tXQ7bLim1b0mJKLT3vp+0er0f5/eJcKGhubEotLUVKOZq4RlxSFbwYtvuqcVvUeLIUx6XvRZXS3iPe4thFKeSkZWokaY94omeLyNKcSN05iMaWXNUyi+ht+OOTozCdZmJOUlQTuTd/2OSElR7IuZPfGxHijYg/3RiZV3fn8G4qzdPWLTPKJ3ZxI9LCECajFqkG2dw2RZQkJHZxW1gSKhf+cFJMiIDb0kub98Y0yV1hti03yqezbEj0kONmShHOy0Ai+kOeKOec8UXPOeKAw8bQOw1Np3J6AG6TenJUWkkEGOUbB7c4mwu12KiTrak9JnYsJ3qjlFrUey6FNTmMoSeqCanDkLh0HAZpzSYwmS+qapKAIi5JbP7Y5NaV/KOUaUO2XQpATMc3ZH7rom86T2Jjk2kjtqKG8bnyEFxZmow47vuhbhyETPQpgyMWXxbTvzibSwriY2UxhUtEcm8lWt0c3PQxewv4RiSRx8LazoIuYVF9hOpjlH/CI9Aq1MSbQlOgr5Rd+7OClvk0fOttvMC/WBR0m5Ppa9FtIUUkZiJPptjeNsYHBPcdv5F7aD3R6u14BHq7Xhj1drwxdR2vAIwpA0HHxOTO5MSaHBj5xNRma07k4jFlN7p2dkTO3pEg5aTuVfHLNEdqYwPJP5t5lGJ4E7hfHItd6oxuGW4XcYqaMpiUFa1FSjn0zA6tPfF6kr1EY2R3GMTaxHtj+2OdPhMc/wD+THOHwmLrZ7owtKMYGUjUxzln3RGNxStT/qe//8QAKxABAAECAwcEAwEBAQAAAAAAAREAIRAxQVFhcYGRobEgQMHR4fDxMJBg/9oACAEBAAE/If8AnunmK7sedQm0k96tBkztb6UGR+xxqCCP0Jow3MD4fVOs2CchtHXA7AC5Cv6T7pvQyCTh6FfABtWlQMuHCiz2YUVNWE/QMntGVYWmv6T7oS+DoIk4ROTN5XSohNbH5fVHibtVPeopDwHzQa6Ss6TfvQ8Pp4NNneAQj7KIEO+M4oC7QCAw7Ep5VOnbD76iSTJHCVeOXmbSjOyE7TRr4RQtSehttEmkERyas/ljhpjKBKPIfcY2w7ZXeDriIEpBREwdJKbXq7cpOFY8VMl9q6Bh1i2rgzCmwVT2DoaNkbceGB6YM6vsmPngZxrFE5NEOR90qiHWj2pKVKurhmD8o6gyah+VDy3Dc4BdKXnwL0Sq4H08YQUs16HjFeBklxu+MUfF2buH4xmokcrd8YWNPEh98sGWYFeQHnrgzgk2qUmB0tSJFLq64EsmyQlIkF3j8qEQpamD3E59A3l/vAYW4XWPnAoqPMHZ7YQUXvcP0Yz0RybMHignoeaLHdqYmRHAs9yoPlz9d946Zgu9ZfBhmKNPdkfOExphD1YNah2hYPc9yzKWwKnw+8fFGyRv+mn4U3pTf1M/o6UJgLmWezQALjUWEs5V+4MDBlIDfXcpBBFTWhHuPMVcIeSH2NCGIQjrT5y6K4QojkXI8YMDLsA8y88Idy8RZP3bg51cVl2jT+jBfx02EN2dfal2CtLFgFv2UNHmtzrnjAC7BNSZqgBPT1ObPYR+eeFvYOWNypeJHKXYQu2leNJsbPHG7xOELEAOdnuNDlJOI1kz85EUjESPYO6UztKZXBd0EKjX24gXlwxUKGYSU6SZqeGVK9nAwW/2YdU0Mna5YFUCwarYUq3mbciA71/J09b9ZDw1ZQyMmE5R6etnxB7PxhYcv3kPakfLA8T6WF3JT0R2KeYg5ot2LWlS58J70SFJnCu+sM4aB/TXx6BRkYSi4b0I9c6F1ft+ao84NOlvieBGCs2XA+yNSEeJc84MhxGnnNf3Z6FBM46R8+nqXEcsWeYeWESyA8rH4qfZ2CWKJBiM4xakoubQwyVfCWVx1q2iYDyakKyFcb+GC/sZxj7T09ZJwXEcqWUJwvS6mB4SdcEnsgygjswh5EA3iehNAZGe/wA8N+ScsTHmDJRnswLx171HRPlo71PJEE4Je9TydsF3g64ywvwOYd6dmaBIqLDe3zHxXwUtKfKWJvf8Jv4MjS+eCHQP7U3Z9jeccjqXxywIukMWG1Sdm0QLQkZ+mByz7Ua69AgPzV2UklBLYMAllvCazZnLY0cXlb9Lb564wq2V8V+MZBbSHFflxkXZrrPf0Jr1BjNCsL00dsTu5SqOfwGGhQeRUmbI47EvasqigjHBfOEdP7Tnl19lfH7nL7qLK812J6ONwNwyijdr7Le7WrJrKzGlG3NMdga1GwRqINuMyfkuX9POMN/kGpZjAEVNis+aESRkcIGspNtT6JZn2giQQ/FCJJ6YQjs8nE04U+l8r8G72Z892BogYOJ1RTHaThUIy3+ld70hz+LK4CgPKM1p+a49BZko6aMidJWPMX6TWTAO1MkR36SiKua+mBCGrsGihvtF2Y7VmSdyPihE3j9woxYN37U3u/8AotxBBNZYOIKHMigC3CUKmFtu8UiMNn/Z8kDEZ0lHdXQ+6RARMx92v9sAUS5Bh90MHNBHpBsnZrH9/wBmxukTSphaHIfnXBmWaAvJFnKoAImj7k5mQkmtmdLwhRSv2KfkTuVQmaylxCa1qbe3q/j/AHLMlAKcrVONFrthHOnQxsWHOpEY4T1qbx3lnn7gFYCahbluO1RpnqoFQpGut1NpLvSPnCM2U6XsdUHsD9VHtvZ35wWtGiTUu7Qr4qeSdjdWRfyOvsjSkyAmoW/bUduSHWszHcl64HwMuPJUyuytSKZ48qU7Zb3SmS4rL7Ik4MkpUdsuT7rf6BqcsdKuqXaENTExuZKygt1+1aa4ZrLb113QyPX3EVryJIrLP6ulZpnd8rWZJqhxeBjKyNBuqvq3bdxcAVgutbxBxs6KQln4Pal8oSQ1H8pFCzpFgv6u8YWs2rP4yv4yskPCjwTno5YhMHHmpY23zotY2asrjdpPbKRIBs8mmbSmV9uWyo0QFCGE+IVmJbFh6NCJIz/oDIDe1JcyLtR3F4nwVbBcO9QS1MkmkgBKvedvh1byP3yrVql/ZIaz541BtD9tlfs+uha3CjxTqfuyFI7kNSsA7APzTc8aH/k9/9oADAMBAAIAAwAAABD33333333333333333333333333333333333333333333333333333333333333333333333333333333333333333333333333333333333333333333333333333333333333333333333333333333333333333333333333333333333v7nDnf3nXX3fXTHDX33333331Zcj9d/S/D3usnyZfz333333333XdZ3pWsfbqq4rD33333333315rb/wB6O2KhbttQ49899999999+09V978jtGye99tQ799999999idOdZ91i9SZ9tP8AMP8A333333332971319321/32y8/33333333n/333333333333irypb333331gnLb3333333332/BQzX33333338Y2bLr7z7zvbrgghFz3333333310JPb4cm/6fs32+/wB99999999999//ADDHDL/vfffffffffffffffffffffffffffffffffffffffffffffffffffffffffffffffffffffffffffffffffffffffffffffffffffffffffffffffffffffffffffffffffffffffffffffffffffffffffffffff/xAAoEQEAAgEBBwQDAQEAAAAAAAABABExIRAwQVFhgZFxobHRIHDh8MH/2gAIAQMBAT8Q/WdXBJeKM7ihtgnEvEt0Aax5YTokFoNlwUw27DUBcwQWigl4HjFbu6mEyi0qDWHW5wIeMFwqIqZUijO7v1YjYBHGyqYNINJxILg8Yta2cyAYliU1uTEy2CjZGmOptCAqFtv8EpM9zcVBYFrBWpXYrItNi0jo2UvWKSk0EsbrrRVzuL2iNkt7nWs6M+IiZ3qIAtYWUHLL9EOaj3IFrD2f+R3G/wDH87drHJwf7Cuq460T15zXNLpnxKs09d2aSkito9VgdqHriWxXVC+WkM3F/Gm4BpSSvOnmY78oNQD395rjV5PeYs9jMydtfi5mg9SWlMtymYX0GYZHrp8zBR6azVgrr9SjqvkSj6BgMf1gCPB7v1FbdWZz48QX3B9TF18sPhgjKMww9p0vgmDDtKCD2QdWaBZdNDyzUz0M+YpWwD7DbUsGBg/3He3UzUd2cz+oQOQez9xbg8P3MUh2+5oCdtPiotat/UH/xAAoEQEAAgECBQMFAQEAAAAAAAABABExECEwQWFx0VGBkSBwobHB4fH/2gAIAQIBAT8Q+2ahmIaQ4adTXraobXBuZTSG4TBUHzY+ljam8QU1HYYqWjsRaLhux4ojlfWL5QoB4amoCrRYR7VObHskdRZAuLVwOHDY2NVAjTpC7RVSK6TkxVD3CCrahzDQAFnBymLR3oksqLUWDgKK+gB2mLwXG4oqO0iC5f20NQLtoKtLtFqsgGluypXC6EAY+hBgVolwA1WyToQAxwS94L32N+uIG7inSUEZPfrg/wBjWyOy/wBiWwdk/sF6qY9N6fz9dXKGBk8kGv6F7j2eUpvctz5gIiPM3OGnKx2R5kq0ux4tgtlC96CdITFYFDF28o+cUfnfgKxJyZet1GfZ5xUMmTc/Eqgj8M2VH8n4mEvdr91MfvZGdSWSjnMTO6EI3D2t/U2lF1oPMHUD0N/lm6q2bPxefaWAXzLL4IxG+4vQ81NgcKhF68zs5gLs9HzH9+vU3PkiJmAYZlM7LP8ApMz291innLE10GLjU9d34P7KUus49jHzAKhrABC+srbfM9eh0OKg5mcXcL+czdinZfMwwe5/SBeY8TNrufFRiy9y/wB3A6aOn2g//8QAKxABAAECBQQCAgIDAQEAAAAAAREAITFBUWGBEHGRoUCxIPDB0TCQ4WDx/9oACAEBAAE/EP8AXvJ7SBnaTsuxLQ5pjwlaDw0PFcqXiD1R8KGaz5o3WcA04SeqYsQkeXaEP1eoOmlHrIbnTFBIcObRDeegahKIhLdIsZfgLtD4ogPNDFoy90mSlkA2HPItQ76BkkctvwjEaS6UAykTHJ6ECYUp4ELNxhw6WsGTIBzaw745VP8A0CkI2RfXKngDi27gB4Kkncp+SmVSYI7hLwq5FeOY72F2FpPDWgTCI3EcvhQwK5BXLZiOaFe4oEwAMDpZ7JOXcijTfgovBQbcQEj2ToYECiLGzfxg1BYawQYw7JDU2cNjOBjmjqEXgAHw0TUhCalK0g7hsrwnVcAU9gRJ8HPWCgy0wuh4TqidGeqsFDwsuRKAvdZeaQFMBdphp+p/WBSa5LSAk914N2j+lK45zNLr00tS+cLNL5g1I8rSs0xSzyejQBgREpLvAePhQ2rblhuWmFic6m5xdBmzs90dqxpV23phU7rS1GlSVeg9VBdzPsKTA5jBTgHhE0XCglEqDFCbxDg6NeWW3xvBBTKggNRjF59QG94i1R0KBKwFCJIyNX34AYf2D100cLBrn056JLkkmHGjcl6EJli95GVpMugpC5rJMYJCpe9MXFQlTirn0dTkto1EuUO62mYtv5FqZvrwBXFxVfkTXhDqUHroUyYcMJk9LpGjcFstYbrPZ9Lj5RBcKHiTqvugOb/Ae1I2IlsR8gVd9mzP/XKudUZji43gHPUZqHgwsnePM9MI4Fox+769I2bCZJIUUSZG6wgO4nr5I1NwUvqjD5gnvim84CFFA9iRvkogCkm79H9Po6KEQwcbDylIDAEdRq8Lc7VQbMNL/PNmmApjxBoZOXMTzT2nQ1GR+uFPZphcBMHI5pAqDJAkI1JRdrmIDyQ9GkFTW76pc9ITOjMgODv0AKb4ukg3GHstKyoipMn6ZdsHMan6yQoNJb/JWqXTTcwJuMfFCAKrAGdQkYVzAnldC8aVhmNC96pTuvWZG5EeGoxopZhG4ZinT9Po6hAqSsuPXuBQgiNxp7mQIzrG0JVv0w2P6nS6uQxwZfMB5oIHjM4t+jbpkomcYUCNAK1QD20HEdnyl3tR4riZqzyDmklJIzW69DFuyRMkzHBKhZ8aiS3B5G+PXAhUacNXX4THN734nehCjYCWdyTVJ+HA9b8iBWZwSN3ailIFCJy4ZtH9LAoWsnYUXVC2Kw+DYLvZEHhrXm8E1KCWNWpr9Po6yY6MdcPxQpYoQgxf7FEMVb0xX6L00pkgmv8AEjRKud3oqgjIvRXa1eEPFHlWWBbsBCeYc1tSQ5FDjgDtIeH4E3IkRhGi625ZmlwOGsJlpP3hgdr96DQJMIBnhco6JJDVkMPSVgySzvGvwgj6h3HOYcdLuh2sYQ9VQ7D8HUIi0ms1+n0ddcUeDDLsdAWfhELheCfSrYc0i6RxWXmpyhpOEn2ilClFXekBIRkaKAIHOQj2Gtro9yKfS0N2++j9jV6Hb6Hhie0cPzXxImFaiYUoVTpVYZgwXuSX6GchdpiQdxBpsw/BwJvX1qaB3DtyJk9nH4ELmfAN1mUsNiczoUlURtAnqk0GTRKnlE8zhgd4NJF+BqD6RSxDeLBQfJqybCRveTta6r88rMCm8hxXs/4S+6fkuBclB4FIiCGc5EPNK4ZRlUVff+AfZR4rPoX46C6VVwL6SixWfgnvVubrXsIWhwpKBX01mzeJlHKXWhvhgU9SGTkKtWRPcQF8aORwbDZs3jvBqUTGjnJDkKHSODfMYEY3vRt3KCDIdkh56oaglcLsHYvoKuxj84APo9SieHTjM+qGgAgAphsEcy5eA7L+ES+YooEElVxo9c3hptjeqLM4AHl9FLmE3DyMUjHNwxyUrhTOxLjuOq/a/QwpDEbmyrug7PhDThTELxNhiOTtJTBUQ6GexQ+nEno9EKaZpaDeN2AzaYFlrQtf/iZZqMGUyysOo4Oj3JBILSTyEv1iptKcyjgdz1HWmCJLydxHcU0oCqAa0IyWqQV46KKd+pR3zwu92CXFGzAkRkTopINMktnuSDuJl+BqGETkjWVAxTs0AQRwR6TtU0sEtTiIvr1K3s7Y1JNC7AZBgAsB8PBqAz1Y1b5lLkfIbs01h4WVjxQVY9D7KSvol3vF6WpfpFyVZzsEsNCcPwSCIjImVB+WAtHmgNvEITe/4krCIoNC9F3KExvdLAZUSq4r+OUBH3QKNPmLzyVBQZ5QvEvukZDgjni5Vs3iZHphXlaSlFW6uf8A6Le9BXqhBHcH7lqaL9EfwVOlNA/mKfMnEA/akAIMIlz/ADH5KGCCEE914oQZXwD7ZO19qbC0AhH5eb0Ay1ni1Z2C4+lYIHjj1V6xxpDOpCjhwRRJELvEJ2/zH0gvCqKhxH7M2Z5aUrhgyR3czZq1A3SIvtxTJbQhCfJnbHIBCIiOzUwATI3uJ908zJyA8DSyqLiv9tbl+H/NW61IHEFMRBxvTggoim7M7h/nJBES4mVHFmAk9NRvj3otgXcDZpudLF3AL0hirPoVn1TXIB8RgePkAEJwAoSV3HNsT4paErg7Ah9+KFnKJxkSTvQgJ9APsVhVpA+0QfcvPwRjKSUutGrc90etKUwe2jtSxWLiQweGpVRpid1J9U2PcPoWT3U4g8UnxW+Fa74snsFPIezfo39UwKNPzKV8FFkRzeyvRI60mZJgZXcY9j1TkpBfRoUl3hfa59p4ocRLHVsPKUn0smq/CUhMqhHUawFxwu/l6NRewSDHexFMGL0QYNyn1Nx92IqYNMIS4SfdJLpRX1CpKCmcpU9asYX0pKEN/wC35/uYmhUAlHP+ZUFCOc30aBGqonsfqoFNZszwQVrASKXeMas1bWkUNT4IP7pWSLRa/R2PfQmSiAM2idAKhnc9mOKMdKQ2YW4D7+KyqpQDkqLvDYi3jB9VdD9i2hx4miaNVc/g3r9yc1KlpEsqA+Yr9y/iv3L+KZlGIkD9V6Mj6fhfKne1MBLQITwvbxY5am4dgMp3wOKR7cvI1Vx6sLHblcQeUqFGI8n7RrSC2kMquL8dKFImCVsJkwbLc4a1BEh4mH7oInH/AM2NAgBwRk/C+vS2lW0q2tX16vTTOAosBNWTTRzFRtmfqPNBr5/0Qx5mm7L+NphxREyY51ICEsq/MWGEyIeKLA7TnzCiQa8sekoO77v6K+00+lqKmTrY8dAIjEPuvJU5ddn7SpQ0p/vKnjTH1BFQRfoTln2p8hcX7z/U9//Z;" parent="1" vertex="1">
          <mxGeometry x="380" y="50" width="50" height="50" as="geometry" />
        </mxCell>
        <mxCell id="mqpe3ahFdLiyBv0JMup5-42" value="aws cloud" style="text;html=1;align=center;verticalAlign=middle;whiteSpace=wrap;rounded=0;" parent="1" vertex="1">
          <mxGeometry x="430" y="50" width="60" height="30" as="geometry" />
        </mxCell>
        <mxCell id="mZEWWkE1MTuudCjCW8MS-1" value="" style="rounded=1;whiteSpace=wrap;html=1;fillColor=#f5f5f5;strokeColor=#666666;gradientColor=#b3b3b3;" vertex="1" parent="1">
          <mxGeometry x="490" y="60" width="260" height="150" as="geometry" />
        </mxCell>
        <mxCell id="mZEWWkE1MTuudCjCW8MS-4" value="Observabilidade" style="text;html=1;align=center;verticalAlign=middle;whiteSpace=wrap;rounded=0;" vertex="1" parent="1">
          <mxGeometry x="520" y="60" width="51.9" height="20" as="geometry" />
        </mxCell>
        <mxCell id="mZEWWkE1MTuudCjCW8MS-7" value="" style="rounded=1;whiteSpace=wrap;html=1;fillColor=#f5f5f5;strokeColor=#666666;gradientColor=#b3b3b3;" vertex="1" parent="1">
          <mxGeometry x="380" y="220" width="654.05" height="350" as="geometry" />
        </mxCell>
        <mxCell id="mqpe3ahFdLiyBv0JMup5-15" style="edgeStyle=orthogonalEdgeStyle;rounded=0;orthogonalLoop=1;jettySize=auto;html=1;exitX=0.5;exitY=1;exitDx=0;exitDy=0;" parent="1" target="mqpe3ahFdLiyBv0JMup5-34" edge="1">
          <mxGeometry relative="1" as="geometry">
            <mxPoint x="541.9000000000001" y="390" as="targetPoint" />
            <mxPoint x="570" y="350" as="sourcePoint" />
          </mxGeometry>
        </mxCell>
        <mxCell id="mqpe3ahFdLiyBv0JMup5-34" value="Amazon DynamoDB" style="sketch=0;outlineConnect=0;fontColor=#232F3E;gradientColor=none;strokeColor=#ffffff;fillColor=#232F3E;dashed=0;verticalLabelPosition=middle;verticalAlign=bottom;align=center;html=1;whiteSpace=wrap;fontSize=10;fontStyle=1;spacing=3;shape=mxgraph.aws4.productIcon;prIcon=mxgraph.aws4.dynamodb;" parent="1" vertex="1">
          <mxGeometry x="530" y="410" width="80" height="110" as="geometry" />
        </mxCell>
        <mxCell id="mqpe3ahFdLiyBv0JMup5-37" value="sns" style="outlineConnect=0;dashed=0;verticalLabelPosition=bottom;verticalAlign=top;align=center;html=1;shape=mxgraph.aws3.sns;fillColor=#D9A741;gradientColor=none;" parent="1" vertex="1">
          <mxGeometry x="850" y="250" width="76.5" height="76.5" as="geometry" />
        </mxCell>
        <mxCell id="mqpe3ahFdLiyBv0JMup5-38" value="notificar usuarios&lt;div&gt;do recebimento do pix&lt;/div&gt;" style="edgeStyle=orthogonalEdgeStyle;rounded=0;orthogonalLoop=1;jettySize=auto;html=1;entryX=0;entryY=0.48;entryDx=0;entryDy=0;entryPerimeter=0;" parent="1" source="mZEWWkE1MTuudCjCW8MS-12" target="mqpe3ahFdLiyBv0JMup5-37" edge="1">
          <mxGeometry x="0.0891" relative="1" as="geometry">
            <mxPoint x="630" y="260" as="sourcePoint" />
            <mxPoint as="offset" />
          </mxGeometry>
        </mxCell>
        <mxCell id="mZEWWkE1MTuudCjCW8MS-11" value="Transacional" style="text;html=1;align=center;verticalAlign=middle;whiteSpace=wrap;rounded=0;" vertex="1" parent="1">
          <mxGeometry x="400" y="230" width="60" height="30" as="geometry" />
        </mxCell>
        <mxCell id="mZEWWkE1MTuudCjCW8MS-12" value="aws lambda" style="outlineConnect=0;dashed=0;verticalLabelPosition=bottom;verticalAlign=top;align=center;html=1;shape=mxgraph.aws3.lambda;fillColor=#F58534;gradientColor=none;" vertex="1" parent="1">
          <mxGeometry x="530" y="243.5" width="76.5" height="93" as="geometry" />
        </mxCell>
        <mxCell id="mZEWWkE1MTuudCjCW8MS-14" value="" style="endArrow=classic;startArrow=classic;html=1;rounded=0;entryX=0;entryY=0.5;entryDx=0;entryDy=0;entryPerimeter=0;" edge="1" parent="1" source="mqpe3ahFdLiyBv0JMup5-4" target="mZEWWkE1MTuudCjCW8MS-12">
          <mxGeometry width="50" height="50" relative="1" as="geometry">
            <mxPoint x="540" y="350" as="sourcePoint" />
            <mxPoint x="590" y="300" as="targetPoint" />
          </mxGeometry>
        </mxCell>
        <mxCell id="mZEWWkE1MTuudCjCW8MS-15" value="Motivos dessa arquitetura:&lt;div&gt;API Gateway: Faz a parte da autorização, recebe e roteia as requisições de PIX para as funções Lambda.&lt;br&gt;AWS Lambda:&amp;nbsp;Processa as requisições de PIX, valida e armazena as transações no DynamoDB. Além disso, cada execução de função Lambda é isolada, o que significa que uma falha em uma execução não afeta outras execuções. E o pagamento por uso garante que só é cobrado o que é usado&lt;/div&gt;&lt;div&gt;AWS Dynamo:&amp;nbsp;Armazena as transações de PIX com baixa latência e alta disponibilidade. Além disso, tem uma ótima perfomance e pagamento conforme o uso&lt;/div&gt;&lt;div&gt;AWS Lambda: após processamento, enviar ao sns para notificar o cliente via sms/e-mail ou notificação&lt;/div&gt;&lt;div&gt;Amazon CloudWatch: Monitora a saúde e a performance do sistema, garantindo resiliência.&lt;br&gt;&lt;/div&gt;" style="text;html=1;align=center;verticalAlign=middle;whiteSpace=wrap;rounded=0;" vertex="1" parent="1">
          <mxGeometry x="487.03" y="590" width="440" height="190" as="geometry" />
        </mxCell>
        <mxCell id="mZEWWkE1MTuudCjCW8MS-18" value="aws cloudwatch" style="sketch=0;points=[[0,0,0],[0.25,0,0],[0.5,0,0],[0.75,0,0],[1,0,0],[0,1,0],[0.25,1,0],[0.5,1,0],[0.75,1,0],[1,1,0],[0,0.25,0],[0,0.5,0],[0,0.75,0],[1,0.25,0],[1,0.5,0],[1,0.75,0]];points=[[0,0,0],[0.25,0,0],[0.5,0,0],[0.75,0,0],[1,0,0],[0,1,0],[0.25,1,0],[0.5,1,0],[0.75,1,0],[1,1,0],[0,0.25,0],[0,0.5,0],[0,0.75,0],[1,0.25,0],[1,0.5,0],[1,0.75,0]];outlineConnect=0;fontColor=#232F3E;fillColor=#E7157B;strokeColor=#ffffff;dashed=0;verticalLabelPosition=bottom;verticalAlign=top;align=center;html=1;fontSize=12;fontStyle=0;aspect=fixed;shape=mxgraph.aws4.resourceIcon;resIcon=mxgraph.aws4.cloudwatch_2;" vertex="1" parent="1">
          <mxGeometry x="571.9" y="90" width="78" height="78" as="geometry" />
        </mxCell>
      </root>
    </mxGraphModel>
  </diagram>
</mxfile>
